<svg width="100" height="100" xmlns="http://www.w3.org/2000/svg">

 <g>
  <title>background</title>
  <rect fill="none" id="canvas_background" height="402" width="582" y="-1" x="-1"/>
 </g>
 <g>
  <title>Layer 1</title>
  <path fill="#7f7f7f" stroke-width="3" id="path11719" d="m50,10.4167c0,0 -10.79392,8.35041 -10.41667,12.49999l0,45.83331l-8.33333,0c-2.30838,0 -4.16667,1.8583 -4.16667,4.1666l0,8.3334l-4.16666,0c-2.3083,0 -4.16667,1.8583 -4.16667,4.1666l0,4.1667l62.5,0l0,-4.1667c0,-2.3083 -1.85838,-4.1666 -4.16667,-4.1666l-4.16666,0l0,-8.3334c0,-2.3083 -1.8583,-4.1666 -4.16667,-4.1666l-8.33333,0l0,-45.83331c0,-4.16666 -10.41667,-12.49999 -10.41667,-12.49999z"/>
 </g>
</svg>