<svg width="500" height="500" xmlns="http://www.w3.org/2000/svg">

 <g>
  <title>background</title>
  <rect fill="none" id="canvas_background" height="402" width="582" y="-1" x="-1"/>
 </g>
 <g>
  <title>Layer 1</title>
  <path id="svg_1" fill-rule="evenodd" fill="#007f3f" d="m240.914,404.457l0,-36.345l109.205,0c9.899,0 17.993,-8.181 17.993,-18.168c0,-4.998 -2.007,-9.541 -5.27,-12.815l-68.229,-68.956l28.248,0c9.903,0 17.991,-8.181 17.991,-18.17c0,-4.996 -2.001,-9.539 -5.269,-12.813l-68.229,-68.955l28.251,0c9.9,0 17.993,-8.358 17.993,-18.625c0,-5.091 -2.006,-9.724 -5.269,-13.086l-95.492,-99.124c-7.086,-7.268 -18.531,-7.268 -25.615,0l-95.308,98.946c-3.362,3.362 -5.453,8.083 -5.453,13.264c0,10.267 8.087,18.625 17.989,18.625l28.166,0l-67.958,68.77c-3.364,3.283 -5.453,7.906 -5.453,12.999c0,9.99 8.087,18.17 17.989,18.17l28.166,0l-67.958,68.772c-3.364,3.282 -5.452,7.905 -5.452,12.999c0,9.987 8.087,18.168 17.988,18.168l118.293,0l0,36.345c0,9.987 -8.177,18.168 -18.17,18.168l-95.399,0c-12.536,0 -22.713,10.18 -22.713,22.715c0,12.537 10.177,22.712 22.713,22.712l390.678,0c12.536,0 22.711,-10.175 22.711,-22.712c0,-12.535 -10.175,-22.715 -22.711,-22.715l-186.254,0c-9.995,-0.001 -18.172,-8.182 -18.172,-18.169z" clip-rule="evenodd"/>
 </g>
</svg>